<svg viewBox="0 0 64 64" fill="none" xmlns="http://www.w3.org/2000/svg" role="img" aria-label="InvestWise Pro Logo">
  <circle cx="32" cy="32" r="30" fill="url(#iw-bg)" />
  <circle cx="32" cy="32" r="29" stroke="url(#iw-ring)" stroke-width="2" />
  <circle cx="32" cy="32" r="22" fill="url(#iw-glow)" opacity="0.25" />
  <g opacity="0.08">
    <path d="M16 24 H48" stroke="white" stroke-width="1" />
    <path d="M16 40 H48" stroke="white" stroke-width="1" />
    <path d="M24 16 V48" stroke="white" stroke-width="1" />
    <path d="M40 16 V48" stroke="white" stroke-width="1" />
  </g>
  <path d="M18 42 L28 34 L35 37 L46 24" fill="none" stroke="url(#iw-arrow)" stroke-width="3.5" stroke-linecap="round" stroke-linejoin="round" />
  <path d="M41 24 L46 24 L46 29" fill="none" stroke="url(#iw-arrow)" stroke-width="3.5" stroke-linecap="round" stroke-linejoin="round" />
  <circle cx="46" cy="24" r="2.6" fill="url(#iw-spark)" />
  <path d="M32 20 L36 24 L32 28 L28 24 Z" fill="url(#iw-badge)" opacity="0.7" />
  <defs>
    <linearGradient id="iw-bg" x1="6" y1="6" x2="58" y2="58" gradientUnits="userSpaceOnUse">
      <stop offset="0%" stop-color="#0f172a" />
      <stop offset="100%" stop-color="#1f1340" />
    </linearGradient>
    <linearGradient id="iw-ring" x1="0" y1="0" x2="64" y2="64" gradientUnits="userSpaceOnUse">
      <stop offset="0%" stop-color="#7c3aed" />
      <stop offset="100%" stop-color="#3b82f6" />
    </linearGradient>
    <radialGradient id="iw-glow" cx="0" cy="0" r="1" gradientUnits="userSpaceOnUse" gradientTransform="translate(32 32) rotate(90) scale(24)">
      <stop offset="0%" stop-color="#7c3aed" />
      <stop offset="100%" stop-color="#7c3aed" stop-opacity="0" />
    </radialGradient>
    <linearGradient id="iw-arrow" x1="18" y1="42" x2="46" y2="24" gradientUnits="userSpaceOnUse">
      <stop offset="0%" stop-color="#22d3ee" />
      <stop offset="100%" stop-color="#34d399" />
    </linearGradient>
    <linearGradient id="iw-spark" x1="44" y1="22" x2="48" y2="26" gradientUnits="userSpaceOnUse">
      <stop offset="0%" stop-color="#f0abfc" />
      <stop offset="100%" stop-color="#93c5fd" />
    </linearGradient>
    <linearGradient id="iw-badge" x1="28" y1="20" x2="36" y2="28" gradientUnits="userSpaceOnUse">
      <stop offset="0%" stop-color="#a78bfa" />
      <stop offset="100%" stop-color="#60a5fa" />
    </linearGradient>
  </defs>
</svg>